<svg width="638" height="102" viewBox="0 0 638 102" fill="none" xmlns="http://www.w3.org/2000/svg">
<path d="M53.3636 34.8182C53.0606 31.4848 51.7121 28.8939 49.3182 27.0455C46.9545 25.1667 43.5758 24.2273 39.1818 24.2273C36.2727 24.2273 33.8485 24.6061 31.9091 25.3636C29.9697 26.1212 28.5152 27.1667 27.5455 28.5C26.5758 29.803 26.0758 31.303 26.0455 33C25.9848 34.3939 26.2576 35.6212 26.8636 36.6818C27.5 37.7424 28.4091 38.6818 29.5909 39.5C30.803 40.2879 32.2576 40.9848 33.9545 41.5909C35.6515 42.197 37.5606 42.7273 39.6818 43.1818L47.6818 45C52.2879 46 56.3485 47.3333 59.8636 49C63.4091 50.6667 66.3788 52.6515 68.7727 54.9545C71.197 57.2576 73.0303 59.9091 74.2727 62.9091C75.5152 65.9091 76.1515 69.2727 76.1818 73C76.1515 78.8788 74.6667 83.9242 71.7273 88.1364C68.7879 92.3485 64.5606 95.5758 59.0455 97.8182C53.5606 100.061 46.9394 101.182 39.1818 101.182C31.3939 101.182 24.6061 100.015 18.8182 97.6818C13.0303 95.3485 8.5303 91.803 5.31818 87.0455C2.10606 82.2879 0.454545 76.2727 0.363636 69H21.9091C22.0909 72 22.8939 74.5 24.3182 76.5C25.7424 78.5 27.697 80.0152 30.1818 81.0455C32.697 82.0758 35.6061 82.5909 38.9091 82.5909C41.9394 82.5909 44.5152 82.1818 46.6364 81.3636C48.7879 80.5455 50.4394 79.4091 51.5909 77.9545C52.7424 76.5 53.3333 74.8333 53.3636 72.9545C53.3333 71.197 52.7879 69.697 51.7273 68.4545C50.6667 67.1818 49.0303 66.0909 46.8182 65.1818C44.6364 64.2424 41.8485 63.3788 38.4545 62.5909L28.7273 60.3182C20.6667 58.4697 14.3182 55.4848 9.68182 51.3636C5.04545 47.2121 2.74242 41.6061 2.77273 34.5455C2.74242 28.7879 4.28788 23.7424 7.40909 19.4091C10.5303 15.0758 14.8485 11.697 20.3636 9.27273C25.8788 6.84848 32.1667 5.63636 39.2273 5.63636C46.4394 5.63636 52.697 6.86363 58 9.31818C63.3333 11.7424 67.4697 15.1515 70.4091 19.5455C73.3485 23.9394 74.8485 29.0303 74.9091 34.8182H53.3636ZM126.955 30.1818V46.5455H82.9091V30.1818H126.955ZM92.1364 13.4545H114.364V78.0455C114.364 79.4091 114.576 80.5152 115 81.3636C115.455 82.1818 116.106 82.7727 116.955 83.1364C117.803 83.4697 118.818 83.6364 120 83.6364C120.848 83.6364 121.742 83.5606 122.682 83.4091C123.652 83.2273 124.379 83.0758 124.864 82.9545L128.227 99C127.167 99.303 125.667 99.6818 123.727 100.136C121.818 100.591 119.53 100.879 116.864 101C111.652 101.242 107.182 100.636 103.455 99.1818C99.7576 97.697 96.9242 95.3939 94.9545 92.2727C93.0152 89.1515 92.0758 85.2273 92.1364 80.5V13.4545ZM157.977 101.182C153.523 101.182 149.568 100.439 146.114 98.9545C142.689 97.4394 139.977 95.1667 137.977 92.1364C136.008 89.0758 135.023 85.2424 135.023 80.6364C135.023 76.7576 135.705 73.4848 137.068 70.8182C138.432 68.1515 140.311 65.9848 142.705 64.3182C145.098 62.6515 147.856 61.3939 150.977 60.5455C154.098 59.6667 157.432 59.0758 160.977 58.7727C164.947 58.4091 168.144 58.0303 170.568 57.6364C172.992 57.2121 174.75 56.6212 175.841 55.8636C176.962 55.0758 177.523 53.9697 177.523 52.5455V52.3182C177.523 49.9848 176.72 48.1818 175.114 46.9091C173.508 45.6364 171.341 45 168.614 45C165.674 45 163.311 45.6364 161.523 46.9091C159.735 48.1818 158.598 49.9394 158.114 52.1818L137.614 51.4545C138.22 47.2121 139.78 43.4242 142.295 40.0909C144.841 36.7273 148.326 34.0909 152.75 32.1818C157.205 30.2424 162.553 29.2727 168.795 29.2727C173.25 29.2727 177.356 29.803 181.114 30.8636C184.871 31.8939 188.144 33.4091 190.932 35.4091C193.72 37.3788 195.871 39.803 197.386 42.6818C198.932 45.5606 199.705 48.8485 199.705 52.5455V100H178.795V90.2727H178.25C177.008 92.6364 175.417 94.6364 173.477 96.2727C171.568 97.9091 169.311 99.1364 166.705 99.9545C164.129 100.773 161.22 101.182 157.977 101.182ZM164.841 86.6364C167.235 86.6364 169.386 86.1515 171.295 85.1818C173.235 84.2121 174.78 82.8788 175.932 81.1818C177.083 79.4545 177.659 77.4545 177.659 75.1818V68.5455C177.023 68.8788 176.25 69.1818 175.341 69.4545C174.462 69.7273 173.492 69.9848 172.432 70.2273C171.371 70.4697 170.28 70.6818 169.159 70.8636C168.038 71.0455 166.962 71.2121 165.932 71.3636C163.841 71.697 162.053 72.2121 160.568 72.9091C159.114 73.6061 157.992 74.5152 157.205 75.6364C156.447 76.7273 156.068 78.0303 156.068 79.5455C156.068 81.8485 156.886 83.6061 158.523 84.8182C160.189 86.0303 162.295 86.6364 164.841 86.6364ZM213.295 100V30.1818H234.886V42.9091H235.614C236.886 38.303 238.962 34.8788 241.841 32.6364C244.72 30.3636 248.068 29.2273 251.886 29.2273C252.917 29.2273 253.977 29.303 255.068 29.4545C256.159 29.5758 257.174 29.7727 258.114 30.0455V49.3636C257.053 49 255.659 48.7121 253.932 48.5C252.235 48.2879 250.72 48.1818 249.386 48.1818C246.75 48.1818 244.371 48.7727 242.25 49.9545C240.159 51.1061 238.508 52.7273 237.295 54.8182C236.114 56.8788 235.523 59.303 235.523 62.0909V100H213.295ZM296.136 101.318C288.773 101.318 282.455 99.803 277.182 96.7727C271.939 93.7424 267.909 89.5303 265.091 84.1364C262.273 78.7121 260.864 72.4394 260.864 65.3182C260.864 58.1667 262.273 51.8939 265.091 46.5C267.939 41.0758 271.985 36.8485 277.227 33.8182C282.5 30.7879 288.788 29.2727 296.091 29.2727C302.545 29.2727 308.167 30.4394 312.955 32.7727C317.773 35.1061 321.53 38.4091 324.227 42.6818C326.955 46.9242 328.394 51.9091 328.545 57.6364H307.773C307.348 54.0606 306.136 51.2576 304.136 49.2273C302.167 47.197 299.591 46.1818 296.409 46.1818C293.833 46.1818 291.576 46.9091 289.636 48.3636C287.697 49.7879 286.182 51.9091 285.091 54.7273C284.03 57.5151 283.5 60.9697 283.5 65.0909C283.5 69.2121 284.03 72.697 285.091 75.5455C286.182 78.3636 287.697 80.5 289.636 81.9545C291.576 83.3788 293.833 84.0909 296.409 84.0909C298.47 84.0909 300.288 83.6515 301.864 82.7727C303.47 81.8939 304.788 80.6061 305.818 78.9091C306.848 77.1818 307.5 75.0909 307.773 72.6364H328.545C328.333 78.3939 326.894 83.4242 324.227 87.7273C321.591 92.0303 317.879 95.3788 313.091 97.7727C308.333 100.136 302.682 101.318 296.136 101.318ZM362.148 6.90909V100H339.92V6.90909H362.148ZM376.295 100V30.1818H398.523V100H376.295ZM387.432 22.0455C384.311 22.0455 381.629 21.0152 379.386 18.9545C377.144 16.8636 376.023 14.3485 376.023 11.4091C376.023 8.49999 377.144 6.01515 379.386 3.95454C381.629 1.86363 384.311 0.818176 387.432 0.818176C390.583 0.818176 393.265 1.86363 395.477 3.95454C397.72 6.01515 398.841 8.49999 398.841 11.4091C398.841 14.3485 397.72 16.8636 395.477 18.9545C393.265 21.0152 390.583 22.0455 387.432 22.0455ZM434.898 60.1818V100H412.67V30.1818H433.807V43H434.58C436.125 38.7273 438.761 35.3788 442.489 32.9545C446.216 30.5 450.655 29.2727 455.807 29.2727C460.716 29.2727 464.973 30.3788 468.58 32.5909C472.216 34.7727 475.034 37.8333 477.034 41.7727C479.064 45.6818 480.064 50.2576 480.034 55.5V100H457.807V59.8636C457.837 55.9848 456.852 52.9545 454.852 50.7727C452.883 48.5909 450.14 47.5 446.625 47.5C444.292 47.5 442.231 48.0152 440.443 49.0455C438.686 50.0455 437.322 51.4848 436.352 53.3636C435.413 55.2424 434.928 57.5151 434.898 60.1818ZM526.386 101.318C519.023 101.318 512.705 99.803 507.432 96.7727C502.189 93.7424 498.159 89.5303 495.341 84.1364C492.523 78.7121 491.114 72.4394 491.114 65.3182C491.114 58.1667 492.523 51.8939 495.341 46.5C498.189 41.0758 502.235 36.8485 507.477 33.8182C512.75 30.7879 519.038 29.2727 526.341 29.2727C532.795 29.2727 538.417 30.4394 543.205 32.7727C548.023 35.1061 551.78 38.4091 554.477 42.6818C557.205 46.9242 558.644 51.9091 558.795 57.6364H538.023C537.598 54.0606 536.386 51.2576 534.386 49.2273C532.417 47.197 529.841 46.1818 526.659 46.1818C524.083 46.1818 521.826 46.9091 519.886 48.3636C517.947 49.7879 516.432 51.9091 515.341 54.7273C514.28 57.5151 513.75 60.9697 513.75 65.0909C513.75 69.2121 514.28 72.697 515.341 75.5455C516.432 78.3636 517.947 80.5 519.886 81.9545C521.826 83.3788 524.083 84.0909 526.659 84.0909C528.72 84.0909 530.538 83.6515 532.114 82.7727C533.72 81.8939 535.038 80.6061 536.068 78.9091C537.098 77.1818 537.75 75.0909 538.023 72.6364H558.795C558.583 78.3939 557.144 83.4242 554.477 87.7273C551.841 92.0303 548.129 95.3788 543.341 97.7727C538.583 100.136 532.932 101.318 526.386 101.318ZM592.398 60.1818V100H570.17V6.90909H591.67V43H592.443C594.019 38.697 596.595 35.3333 600.17 32.9091C603.777 30.4848 608.186 29.2727 613.398 29.2727C618.307 29.2727 622.58 30.3636 626.216 32.5455C629.852 34.697 632.67 37.7424 634.67 41.6818C636.701 45.6212 637.701 50.2273 637.67 55.5V100H615.443V59.8636C615.473 55.9848 614.504 52.9545 612.534 50.7727C610.564 48.5909 607.792 47.5 604.216 47.5C601.883 47.5 599.822 48.0152 598.034 49.0455C596.277 50.0455 594.898 51.4848 593.898 53.3636C592.928 55.2424 592.428 57.5151 592.398 60.1818Z" fill="white"/>
</svg>
